#!OML:ASF X:\für Bonn\!DataBase\2005_08_12_Daniel\c3d\Daniel.ASF
:FULLY-SPECIFIED
:DEGREES
1312
root 2.1476 16.9828 6.24957 0.110692 198.552 -8.24228
lowerback 10.2124 -4.16262 -4.83573
upperback 2.35483 -6.29764 -1.2103
thorax -2.86816 -3.19413 2.21352
lowerneck -3.50266 -4.44288 -9.83161
upperneck 10.3201 -6.43524 8.13183
head 4.22469 -3.28119 3.77382
rclavicle 3.35449e-014 -9.54166e-015
rhumerus -48.7249 -36.4257 -55.0237
rradius 11.7181
rwrist 45.7787
rhand -17.4807 15.2827
rfingers 7.12502
rthumb 8.7715 -14.515
lclavicle 3.35449e-014 -9.54166e-015
lhumerus -16.5611 11.572 81.671
lradius 30.3268
lwrist -13.2282
lhand -15.169 -7.69965
lfingers 7.12502
lthumb 11.0017 21.9921
rfemur -34.7212 24.4846 3.92752
rtibia 20.5952
rfoot -26.5021 -30.302
rtoes -6.66813
lfemur 25.8562 -5.26946 -26.913
ltibia 12.1584
lfoot -22.5263 2.03835
ltoes -17.2568
1313
root 2.11342 16.9554 6.03617 0.0213426 198.399 -7.90411
lowerback 10.2372 -4.2447 -4.35261
upperback 2.32873 -6.34309 -1.04287
thorax -2.93846 -3.21341 2.13013
lowerneck -3.86074 -4.50716 -10.0208
upperneck 10.3588 -6.47433 8.21061
head 4.30925 -3.29108 3.81861
rclavicle 3.65764e-014 1.63003e-014
rhumerus -48.7115 -36.0603 -55.2839
rradius 11.8358
rwrist 44.8947
rhand -17.6629 14.9641
rfingers 7.12502
rthumb 8.59563 -14.841
lclavicle 3.65764e-014 1.63003e-014
lhumerus -16.7944 12.2323 81.6608
lradius 30.3292
lwrist -13.7061
lhand -15.3159 -7.71304
lfingers 7.12502
lthumb 10.8601 21.9862
rfemur -34.2025 21.6485 5.88135
rtibia 20.9729
rfoot -24.0185 -28.4555
rtoes -5.26106
lfemur 26.5856 -4.72885 -26.1445
ltibia 11.9495
lfoot -22.0031 1.23988
ltoes -17.2286
1314
root 2.08118 16.9246 5.81647 -0.0709424 198.24 -7.57703
lowerback 10.2558 -4.3172 -3.86072
upperback 2.27632 -6.37374 -0.872105
thorax -3.03457 -3.22426 2.04462
lowerneck -4.24661 -4.58034 -10.3063
upperneck 10.4599 -6.52186 8.31126
head 4.42235 -3.30796 3.88453
rclavicle 4.85532e-014 6.75868e-015
rhumerus -48.944 -35.9637 -55.1236
rradius 11.8767
rwrist 44.5086
rhand -17.9339 14.805
rfingers 7.12502
rthumb 8.33416 -15.0106
lclavicle 4.85532e-014 6.75868e-015
lhumerus -17.1257 12.8691 81.6916
lradius 30.2694
lwrist -14.0811
lhand -15.5413 -7.7586
lfingers 7.12502
lthumb 10.6426 21.9519
rfemur -33.8447 19.0165 7.70697
rtibia 21.5868
rfoot -21.6874 -26.4884
rtoes -4.26604
lfemur 27.2241 -4.20277 -25.3748
ltibia 11.911
lfoot -21.373 0.447755
ltoes -17.3343
1315
root 2.04852 16.8926 5.59248 -0.211729 198.015 -7.18001
lowerback 10.2144 -4.36146 -3.26188
upperback 2.24849 -6.35466 -0.72382
thorax -3.08921 -3.21383 1.86496
lowerneck -4.58158 -4.66856 -10.5918
upperneck 10.5654 -6.60187 8.46003
head 4.53316 -3.34078 3.96445
rclavicle -1.01877e-013 3.97569e-015
rhumerus -49.0429 -35.6447 -55.3094
rradius 11.9535
rwrist 43.5693
rhand -18.1871 14.5127
rfingers 7.12502
rthumb 8.08981 -15.3124
lclavicle -1.01877e-013 3.97569e-015
lhumerus -17.5381 13.6163 81.6994
lradius 30.2503
lwrist -14.5896
lhand -15.7516 -7.85599
lfingers 7.12502
lthumb 10.4398 21.8648
rfemur -33.6327 16.611 9.50363
rtibia 22.4311
rfoot -19.2376 -24.5655
rtoes -2.89256
lfemur 27.7722 -3.64204 -24.526
ltibia 12.1171
lfoot -20.6306 -0.324512
ltoes -17.563
1316
root 2.02006 16.8648 5.36371 -0.351856 197.804 -6.73717
lowerback 10.1055 -4.42166 -2.66742
upperback 2.22549 -6.35409 -0.538783
thorax -3.09579 -3.21399 1.72069
lowerneck -4.82455 -4.72635 -10.9384
upperneck 10.5753 -6.64085 8.66005
head 4.59942 -3.35422 4.0757
rclavicle 4.24405e-014 -3.89618e-014
rhumerus -49.4254 -35.8617 -54.8958
rradius 11.9636
rwrist 43.4999
rhand -18.4147 14.3402
rfingers 7.12502
rthumb 7.87005 -15.4934
lclavicle 4.24405e-014 -3.89618e-014
lhumerus -18.0201 14.515 81.717
lradius 30.1915
lwrist -15.092
lhand -16.0467 -8.11011
lfingers 7.12502
lthumb 10.1551 21.6248
rfemur -33.5395 14.2473 11.3036
rtibia 23.4581
rfoot -16.6818 -22.6456
rtoes -1.17201
lfemur 28.0941 -3.03704 -23.5554
ltibia 12.6786
lfoot -19.8067 -1.14314
ltoes -18.0569
1317
root 1.99178 16.8453 5.13164 -0.521358 197.546 -6.30951
lowerback 10.0312 -4.46872 -2.09266
upperback 2.19719 -6.34261 -0.360902
thorax -3.12605 -3.2089 1.58197
lowerneck -5.00892 -4.78763 -11.2591
upperneck 10.5633 -6.6971 8.89665
head 4.65136 -3.37532 4.19454
rclavicle -3.8266e-014 1.59028e-015
rhumerus -49.5692 -35.6937 -54.9016
rradius 11.9783
rwrist 42.803
rhand -18.6178 14.1802
rfingers 7.12502
rthumb 7.67408 -15.6606
lclavicle -3.8266e-014 1.59028e-015
lhumerus -18.5987 15.3538 81.7074
lradius 30.1444
lwrist -15.3776
lhand -16.3298 -8.25
lfingers 7.12502
lthumb 9.88196 21.4981
rfemur -33.4976 12.1519 12.9666
rtibia 24.6146
rfoot -14.2263 -20.9151
rtoes 0.756786
lfemur 28.1905 -2.51804 -22.6668
ltibia 13.7076
lfoot -18.969 -1.85512
ltoes -18.5499
